<svg xmlns="http://www.w3.org/2000/svg" viewBox="0 0 400 400"><defs><style>.cls-1{fill:#dffaff;}.cls-2{fill:#edd924;}.cls-3{fill:#ffd13f;}</style></defs><g id="Layer_2" data-name="Layer 2"><g id="Layer_2-2" data-name="Layer 2"><circle class="cls-1" cx="200" cy="200" r="200"/><circle class="cls-2" cx="200" cy="200" r="141.42"/><polygon class="cls-3" points="200 22.15 182.5 52.46 217.5 52.46 200 22.15"/><polygon class="cls-3" points="85.37 63.69 91.44 98.15 118.25 75.66 85.37 63.69"/><polygon class="cls-3" points="24.25 169.2 51.06 191.69 57.14 157.23 24.25 169.2"/><polygon class="cls-3" points="45.26 289.3 80.25 289.3 62.75 259 45.26 289.3"/><polygon class="cls-3" points="138.55 367.81 165.35 345.31 132.47 333.34 138.55 367.81"/><polygon class="cls-3" points="260.48 367.98 266.55 333.52 233.67 345.49 260.48 367.98"/><polygon class="cls-3" points="353.99 289.74 336.49 259.43 318.99 289.74 353.99 289.74"/><polygon class="cls-3" points="375.33 169.69 342.45 157.72 348.52 192.19 375.33 169.69"/><polygon class="cls-3" points="314.52 64.01 281.63 75.98 308.44 98.48 314.52 64.01"/></g></g></svg>